REM DIRINDEX 1\2,1\3,1\4,1\5,1\6
REM DIRNAME "folder01","folder02","folder03","folder04","folder05","folder06"
TITLE ""
FILE "Disc6Track04.mp3" MP3
  TRACK 01 AUDIO
    TITLE "3:cjc161_10540"
    INDEX 01 00:00:00
  TRACK 02 AUDIO
    TITLE "4:cjc161_10541"
    INDEX 01 00:00:69
  TRACK 03 AUDIO
    TITLE "5:cjc161_10542"
    INDEX 01 00:01:65
  TRACK 04 AUDIO
    TITLE "0:"
    INDEX 01 00:02:72
  TRACK 05 AUDIO
    TITLE "3:cjc161_10543"
    INDEX 01 00:03:36
  TRACK 06 AUDIO
    TITLE "4:cjc161_10544"
    INDEX 01 00:04:45
  TRACK 07 AUDIO
    TITLE "5:cjc161_10545"
    INDEX 01 00:06:34
  TRACK 08 AUDIO
    TITLE "6:cjc161_10546"
    INDEX 01 00:07:44
  TRACK 09 AUDIO
    TITLE "0:"
    INDEX 01 00:11:65
  TRACK 10 AUDIO
    TITLE "3:cjc161_10547"
    INDEX 01 00:12:21
  TRACK 11 AUDIO
    TITLE "4:cjc161_10548"
    INDEX 01 00:13:42
  TRACK 12 AUDIO
    TITLE "5:cjc161_10549"
    INDEX 01 00:14:73
  TRACK 13 AUDIO
    TITLE "0:"
    INDEX 01 00:16:21
  TRACK 14 AUDIO
    TITLE "3:cjc161_10550"
    INDEX 01 00:16:58
  TRACK 15 AUDIO
    TITLE "4:cjc161_10551"
    INDEX 01 00:17:64
  TRACK 16 AUDIO
    TITLE "5:cjc161_10552"
    INDEX 01 00:18:57
  TRACK 17 AUDIO
    TITLE "6:cjc161_10553"
    INDEX 01 00:19:63
  TRACK 18 AUDIO
    TITLE "0:"
    INDEX 01 00:24:66
  TRACK 19 AUDIO
    TITLE "3:cjc161_10554"
    INDEX 01 00:25:20
  TRACK 20 AUDIO
    TITLE "4:cjc161_10555"
    INDEX 01 00:26:31
  TRACK 21 AUDIO
    TITLE "5:cjc161_10556"
    INDEX 01 00:28:16
  TRACK 22 AUDIO
    TITLE "0:"
    INDEX 01 00:29:34
  TRACK 23 AUDIO
    TITLE "3:cjc161_10557"
    INDEX 01 00:29:67
  TRACK 24 AUDIO
    TITLE "4:cjc161_10558"
    INDEX 01 00:31:03
  TRACK 25 AUDIO
    TITLE "5:cjc161_10559"
    INDEX 01 00:33:12
  TRACK 26 AUDIO
    TITLE "0:"
    INDEX 01 00:34:25
  TRACK 27 AUDIO
    TITLE "3:cjc161_10560"
    INDEX 01 00:34:66
  TRACK 28 AUDIO
    TITLE "4:cjc161_10561"
    INDEX 01 00:36:10
  TRACK 29 AUDIO
    TITLE "5:cjc161_10562"
    INDEX 01 00:37:41
  TRACK 30 AUDIO
    TITLE "0:"
    INDEX 01 00:38:60
  TRACK 31 AUDIO
    TITLE "3:cjc161_10563"
    INDEX 01 00:39:22
  TRACK 32 AUDIO
    TITLE "4:cjc161_10564"
    INDEX 01 00:40:43
  TRACK 33 AUDIO
    TITLE "5:cjc161_10565"
    INDEX 01 00:41:23
  TRACK 34 AUDIO
    TITLE "6:cjc161_10566"
    INDEX 01 00:42:42
  TRACK 35 AUDIO
    TITLE "0:"
    INDEX 01 00:44:70
  TRACK 36 AUDIO
    TITLE "3:cjc161_10567"
    INDEX 01 00:45:27
  TRACK 37 AUDIO
    TITLE "4:cjc161_10568"
    INDEX 01 00:46:40
  TRACK 38 AUDIO
    TITLE "5:cjc161_10569"
    INDEX 01 00:47:51
  TRACK 39 AUDIO
    TITLE "6:cjc161_10570"
    INDEX 01 00:48:64
  TRACK 40 AUDIO
    TITLE "0:"
    INDEX 01 00:51:29
  TRACK 41 AUDIO
    TITLE "3:cjc161_10571"
    INDEX 01 00:51:59
  TRACK 42 AUDIO
    TITLE "4:cjc161_10572"
    INDEX 01 00:53:10
  TRACK 43 AUDIO
    TITLE "5:cjc161_10573"
    INDEX 01 00:54:39
  TRACK 44 AUDIO
    TITLE "0:"
    INDEX 01 00:55:66
  TRACK 45 AUDIO
    TITLE "3:cjc161_10574"
    INDEX 01 00:56:28
  TRACK 46 AUDIO
    TITLE "4:cjc161_10575"
    INDEX 01 00:57:63
  TRACK 47 AUDIO
    TITLE "5:cjc161_10576"
    INDEX 01 00:59:21
  TRACK 48 AUDIO
    TITLE "6:cjc161_10577"
    INDEX 01 01:00:54
  TRACK 49 AUDIO
    TITLE "0:"
    INDEX 01 01:03:17
  TRACK 50 AUDIO
    TITLE "3:cjc161_10578"
    INDEX 01 01:03:46
  TRACK 51 AUDIO
    TITLE "4:cjc161_10579"
    INDEX 01 01:04:65
  TRACK 52 AUDIO
    TITLE "5:cjc161_10580"
    INDEX 01 01:06:68
  TRACK 53 AUDIO
    TITLE "6:cjc161_10581"
    INDEX 01 01:08:08
  TRACK 54 AUDIO
    TITLE "0:"
    INDEX 01 01:11:08
  TRACK 55 AUDIO
    TITLE "3:cjc161_10582"
    INDEX 01 01:11:38
  TRACK 56 AUDIO
    TITLE "4:cjc161_10583"
    INDEX 01 01:12:43
  TRACK 57 AUDIO
    TITLE "5:cjc161_10584"
    INDEX 01 01:14:18
  TRACK 58 AUDIO
    TITLE "6:cjc161_10585"
    INDEX 01 01:15:24
  TRACK 59 AUDIO
    TITLE "0:"
    INDEX 01 01:19:35
  TRACK 60 AUDIO
    TITLE "3:cjc161_10586"
    INDEX 01 01:19:65
  TRACK 61 AUDIO
    TITLE "4:cjc161_10587"
    INDEX 01 01:21:03
  TRACK 62 AUDIO
    TITLE "5:cjc161_10588"
    INDEX 01 01:23:64
  TRACK 63 AUDIO
    TITLE "0:"
    INDEX 01 01:25:03
  TRACK 64 AUDIO
    TITLE "3:cjc161_10589"
    INDEX 01 01:25:38
  TRACK 65 AUDIO
    TITLE "4:cjc161_10590"
    INDEX 01 01:26:61
  TRACK 66 AUDIO
    TITLE "5:cjc161_10591"
    INDEX 01 01:29:42
  TRACK 67 AUDIO
    TITLE "6:cjc161_10592"
    INDEX 01 01:30:66
  TRACK 68 AUDIO
    TITLE "0:"
    INDEX 01 01:34:54
